<?xml version="1.0" encoding="UTF-8" standalone="no"?>
<svg
   xmlns:dc="http://purl.org/dc/elements/1.1/"
   xmlns:cc="http://creativecommons.org/ns#"
   xmlns:rdf="http://www.w3.org/1999/02/22-rdf-syntax-ns#"
   xmlns:svg="http://www.w3.org/2000/svg"
   xmlns="http://www.w3.org/2000/svg"
   xmlns:sodipodi="http://sodipodi.sourceforge.net/DTD/sodipodi-0.dtd"
   xmlns:inkscape="http://www.inkscape.org/namespaces/inkscape"
   width="319pt"
   height="302pt"
   viewBox="0 0 319 302"
   version="1.1"
   id="svg2"
   inkscape:version="0.48.4 r9939"
   sodipodi:docname="FaceBlockLogo.svg">
  <metadata
     id="metadata18">
    <rdf:RDF>
      <cc:Work
         rdf:about="">
        <dc:format>image/svg+xml</dc:format>
        <dc:type
           rdf:resource="http://purl.org/dc/dcmitype/StillImage" />
        <dc:title></dc:title>
      </cc:Work>
    </rdf:RDF>
  </metadata>
  <defs
     id="defs16" />
  <sodipodi:namedview
     pagecolor="#ffffff"
     bordercolor="#666666"
     borderopacity="1"
     objecttolerance="10"
     gridtolerance="10"
     guidetolerance="10"
     inkscape:pageopacity="0"
     inkscape:pageshadow="2"
     inkscape:window-width="1920"
     inkscape:window-height="1028"
     id="namedview14"
     showgrid="false"
     inkscape:zoom="1.2503311"
     inkscape:cx="137.61536"
     inkscape:cy="133.95468"
     inkscape:window-x="-8"
     inkscape:window-y="-8"
     inkscape:window-maximized="1"
     inkscape:current-layer="svg2"
     showborder="false"
     inkscape:showpageshadow="false" />
  <rect
     style="fill:#ffffff;fill-opacity:1;stroke:none"
     id="rect2986"
     width="318.63559"
     height="273.20764"
     x="0"
     y="12.477113" />
  <path
     style="fill:#00272d;fill-opacity:1"
     d="m 157.98543,14.218713 c -8.95875,0.0098 -17.935,0.6075 -26.5,3.375 -13.46,3.92 -25,16.265 -25.5,30.675 -0.45,10.360001 0.05,20.755 -0.1,31.125 -0.12,2.45 -0.185,5.98 -3.275,6.5 -7.760001,1.57 -15.610001,-1.545 -23.450001,-0.425 -0.35,0.97 -0.7,1.94 -1.05,2.9 6.3,5.58 14.625,7.57 22.375001,10.2 2.44,0.62 3.785,2.819997 5.125,4.749997 -2.79,0.7 -5.595,1.305 -8.425001,1.825 -0.95,3.93001 -0.62,8.06 1.2,11.7 3.160001,6.84 5.680001,14.05 6.400001,21.6 0.67,4.48 0.36,9.625 3.7,13.175 2.69,2.93 4.86,6.305 6.05,10.125 1.48,4.65 3.565,9.075 5.875,13.375 -5.89,7.48 -9.385,16.69 -16.525,23.2 -7.480001,8.79 -18.080001,14.125 -28.750001,18.025 -10.23,3.07 -20.055,7.26 -30.125,10.8 -6.9,2.5 -14.495,2.815 -21.025,6.375 -5.6,3 -11.225,6.59 -14.6749999,12.1 -4.6200002,7.36 -8.225,15.54 -9.47500002,24.2 l 0,16 318.02500092,0 c -0.97159,-6.69506 -1.65259,-13.43337 -2.825,-20.1 -1.56,-7.8 -3.985,-16.03 -10.125,-21.5 -7.1,-6.66 -16.545,-9.645 -25.275,-13.475 -5.57,-2.29 -11.335,-4.06 -16.975,-6.15 -7.07,-2.6 -14.52,-4.245 -21.25,-7.725 -6.84,-3.59 -13.33,-7.875 -19.15,-12.975 -7.05,-5.65 -13.745,-12.075 -17.875,-20.225 -2.18,-4.47 -5.315,-8.53 -6.675,-13.35 0.81,-5.42 3.03,-10.525 4.55,-15.775 1.04,-3.81 4.155,-6.435 5.975,-9.825 0.79,-2.76 0.595,-5.685 0.925,-8.525 0.64,-10.92 8.1,-20.25999 7.4,-31.4 -2.77,-0.18 -5.545,-0.235 -8.325,-0.275 0.1,-2 0.065,-3.985 -0.075,-5.974997 4.16,-1.54 8.52,-2.395 12.85,-3.275 5.27,-1.1 10.045,-3.66 14.625,-6.4 -0.36,-2.55 0.465,-6.665 -3.075,-7.125 -7.34,-1.03 -14.685,0.865 -22.025,1.125 -1.78,-13.06 -1.86,-26.274999 -3.25,-39.375 -0.74,-7.77 -5.59,-14.37 -10.9,-19.75 -8.15,-6.84 -19.11,-8.87 -29.45,-9.4 -2.965,-0.075 -5.96375,-0.128281 -8.95,-0.125 z"
     id="path6"
     inkscape:connector-curvature="0"
     inkscape:export-filename="C:\Users\Prajit\Documents\GitHub\FaceBlock\Documentation\Website\production\img\FaceBlockLogo.png"
     inkscape:export-xdpi="90"
     inkscape:export-ydpi="90" />
  <path
     d="m 144.84475,99.672358 c 8.36,-0.09 16.67,-1.35 25.04,-1.09 1.8,-0.14 3.2,1.07 4.52,2.090002 4.22,3.42 9.01,6.47 11.68,11.36 2.19,3.31 2.66,7.3 3.24,11.12 0.61,4.05 2.4,7.96 1.96,12.11 -0.59,5.84 -2.69,11.36 -4.59,16.87 -1.54,4.22 -3.15,8.53 -5.93,12.11 -2.06,2.63 -5.11,4.17 -7.46,6.47 -1.89,2.81 -2.72,6.33 -5.41,8.58 -3.06,2.64 -5.3,6.11 -8.44,8.65 -3.59,1.44 -7.64,0.4 -11.41,0.93 -1.26,1.18 -0.37,2.51 0.92,3.13 5.81,2.99 12.5,3.34 18.91,3.16 4.03,-0.19 7.91,1.16 11.89,1.46 6.91,-3.08 11.31,-9.72 15.52,-15.71 0.69,0.99 1.64,1.98 1.56,3.3 0.39,8.83 -1.8,17.49 -3.1,26.16 -0.83,3.97 -1.04,8.23 -3.03,11.84 -3.57,4.53 -8.64,7.54 -13.5,10.49 0.18,0.8 0.37,1.59 0.56,2.39 3.65,-1.45 6.99,-3.51 10.39,-5.46 0.29,0.39 0.88,1.16 1.18,1.54 -1.75,11.71 -5.4,23.08 -9.8,34.05 -1.61,3.94 -2.43,8.33 -5.32,11.63 -4.02,-8.03 -4.97,-17.06 -7.04,-25.68 -0.9,-3.82 -2.93,-7.25 -3.84,-11.05 -0.74,-5.35 3.29,-10.35 1.65,-15.71 -1.17,-4.15 -2.59,-8.5 -5.57,-11.72 -1.77,-1.98 -4.56,-1.98 -6.99,-2.28 -1.22,5.26 -2.8,10.48 -3.38,15.87 -0.61,4.62 3.11,8.41 3.08,12.92 -1.4,4.79 -4.48,9 -5.1,14.05 -1.65,10.44 -0.55,21.36 -4.45,31.4 -3.05,-5.39 -3.64,-11.68 -5.54,-17.5 -2.46,-8.18 -2.46,-16.85 -4.91,-25.03 -1.16,-3.86 -1.66,-7.87 -1.72,-11.89 0.01,-5.01 -4.78,-8.21 -5.72,-12.97 -2.56,-10.06 -4.44,-20.61 -3.22,-30.99 2.2,0.85 4.36,1.81 6.52,2.77 0.13,-0.42 0.39,-1.26 0.52,-1.68 -2.02,-2.97 -4.5,-5.83 -5.24,-9.44 -0.68,-2.64 -0.77,-5.54 -2.38,-7.84 -1.89,-2.88 -4.1,-5.67 -4.98,-9.07 -2,-7.14 -4.06,-14.27 -5.33,-21.57 -0.76,-4.7 -2.67,-9.37 -1.76,-14.18 0.8,-6.46 1.29,-12.96 2.62,-19.34 0.55,-2.16 1.23,-4.88 3.64,-5.65 4.23,-1.890002 8.5,0.81 12.73,1.18 5.75,0.33 11.33,-1.44 17.03,-1.780002 z"
     id="path8"
     inkscape:connector-curvature="0"
     style="fill:#ffffff" />
  <rect
     style="fill:#000000;stroke:none"
     id="rect3013"
     width="280.68906"
     height="57.72739"
     x="18.503401"
     y="110.98423" />
  <text
     xml:space="preserve"
     style="font-size:42.98000717px;font-style:normal;font-variant:normal;font-weight:normal;font-stretch:normal;line-height:125%;letter-spacing:0px;word-spacing:0px;fill:#000000;fill-opacity:1;stroke:none;font-family:BatangChe;-inkscape-font-specification:BatangChe"
     x="21.471405"
     y="153.59398"
     id="text2995"
     sodipodi:linespacing="125%"><tspan
       sodipodi:role="line"
       id="tspan2997"
       x="21.471405"
       y="153.59398"
       style="font-style:normal;font-variant:normal;font-weight:bold;font-stretch:normal;fill:#ffffff;font-family:Garamond;-inkscape-font-specification:Garamond">Face-Block<tspan
   style="fill:#b8b8b8;fill-opacity:1"
   id="tspan3763">.me</tspan></tspan></text>
</svg>
